<svg width="921" height="452" viewBox="0 0 921 452" fill="none" xmlns="http://www.w3.org/2000/svg">
<path d="M47.4167 97.3383H61.0812C78.6518 97.3383 88.1346 89.8072 88.1346 76.6995C88.1346 63.5904 78.6518 56.0592 61.0812 56.0592H47.4167V97.3383ZM0 15.6183H57.7361C105.148 15.6183 135.55 29.8425 135.55 76.9779C135.55 114.631 103.755 137.779 64.1493 137.779H47.4167V204.717L0 209.18V15.6183Z" fill="white"/>
<path d="M226.2 170.97C245.722 170.97 262.736 155.072 262.736 134.99C262.736 114.91 245.722 99.0124 226.2 99.0124C206.956 99.0124 189.942 114.91 189.942 134.99C189.942 155.072 206.956 170.97 226.2 170.97ZM146.432 134.99C146.432 90.6447 184.084 58.57 226.2 58.57C268.593 58.57 306.247 90.6447 306.247 134.99C306.247 179.338 268.593 211.411 226.2 211.411C184.084 211.411 146.432 179.338 146.432 134.99Z" fill="white"/>
<path d="M372.068 8.08798V204.718L328.561 209.181V12.551L372.068 8.08798Z" fill="white"/>
<path d="M449.609 204.718L406.098 209.181V65.2644L449.609 60.8015V204.718ZM479.45 0.00012207L435.383 41.2777H401.637L428.69 0.00012207H479.45Z" fill="white"/>
<path d="M470.25 101.243L479.454 64.984H493.119V36.5372L536.628 19.8017V64.984H561.451V101.243H536.628V151.447C536.628 165.669 547.506 169.576 559.779 169.576C563.683 169.576 569.262 168.739 571.214 167.902L558.664 210.853C556.708 211.133 554.2 211.411 551.97 211.411C513.478 211.411 493.119 193.004 493.119 154.793V101.243H470.25Z" fill="white"/>
<path d="M635.643 204.718L592.133 209.181V65.2644L635.643 60.8014V204.718Z" fill="white"/>
<path d="M765.613 107.657C757.806 100.964 747.484 97.6178 737.444 97.6178C718.201 97.6178 701.743 112.12 701.743 132.202C701.743 154.514 715.691 172.365 738.28 172.365C748.599 172.365 757.806 169.297 765.891 162.045L789.6 193.004C778.165 205.275 753.342 211.411 737.444 211.411C688.079 211.411 658.234 175.99 658.234 137.5C658.234 90.365 691.146 58.5702 737.444 58.5702C755.293 58.5702 774.259 64.7065 788.206 76.1409L765.613 107.657Z" fill="white"/>
<path d="M858.495 177.942C870.208 177.942 879.969 170.969 879.969 158.977C879.969 147.263 870.208 140.29 858.495 140.29C846.499 140.29 836.738 147.263 836.738 158.977C836.738 170.969 846.499 177.942 858.495 177.942ZM820.839 64.9843C831.998 61.081 848.176 58.5697 860.168 58.5697C895.868 58.5697 920.413 73.3521 920.413 108.773V204.717L882.479 209.18V194.956H881.921C873.553 207.785 861.003 211.412 846.221 211.412C813.869 211.412 796.299 190.215 796.299 159.535C796.299 130.529 820.003 112.4 847.614 112.4C858.495 112.4 870.766 116.583 879.969 123.277C880.249 121.882 880.249 120.488 880.249 118.814C880.249 99.0121 871.044 94.8275 852.357 94.8275C839.529 94.8275 826.419 98.174 814.706 103.475L820.839 64.9843Z" fill="white"/>
<path d="M78.7932 351.713C78.7932 380.998 103.338 408.33 133.458 408.33C163.581 408.33 188.123 380.998 188.123 351.713C188.123 322.427 163.581 295.095 133.458 295.095C103.338 295.095 78.7932 322.427 78.7932 351.713ZM235.539 351.713C235.539 407.493 189.241 451.84 133.458 451.84C77.6782 451.84 31.3809 407.493 31.3809 351.713C31.3809 295.93 77.6782 251.584 133.458 251.584C189.241 251.584 235.539 295.93 235.539 351.713Z" fill="white"/>
<path d="M326.747 411.398C347.665 411.398 363.283 394.663 363.283 375.419C363.283 356.175 347.665 339.441 326.747 339.441C305.551 339.441 289.932 356.175 289.932 375.419C289.932 394.663 305.551 411.398 326.747 411.398ZM295.79 248.515V313.501H296.347C304.436 303.183 319.497 298.998 333.719 298.998C376.393 298.998 406.793 335.536 406.793 376.814C406.793 419.208 372.209 451.839 330.653 451.839C281.006 451.839 252.279 422.554 252.279 372.909V252.978L295.79 248.515Z" fill="white"/>
<path d="M424.646 305.692L463.134 301.229V328.562H463.693C472.059 303.462 486.286 298.999 509.99 298.999L497.719 342.506C475.967 342.228 468.157 350.874 468.157 372.351V445.146L424.646 449.608V305.692Z" fill="white"/>
<path d="M605.657 341.113C601.192 336.372 593.944 335.257 586.413 335.257C567.447 335.257 552.663 353.107 552.663 371.515V376.534L605.657 341.113ZM565.493 402.473C570.514 409.725 580.555 412.792 588.921 412.792C604.263 412.792 618.763 405.542 630.48 396.057L653.349 429.528C634.383 442.635 612.909 451.84 588.086 451.84C542.346 451.84 510.826 411.955 510.826 377.371C510.826 334.699 544.854 298.999 586.134 298.999C616.254 298.999 644.423 316.291 657.813 343.066L565.493 402.473Z" fill="white"/>
<path d="M672.6 305.692L711.087 301.229V328.562H711.646C720.012 303.462 734.239 298.999 757.943 298.999L745.672 342.506C723.915 342.228 716.106 350.874 716.106 372.351V445.146L672.6 449.608V305.692Z" fill="white"/>
<path d="M819.583 418.372C831.296 418.372 841.061 411.399 841.061 399.405C841.061 387.692 831.296 380.718 819.583 380.718C807.592 380.718 797.829 387.692 797.829 399.405C797.829 411.399 807.592 418.372 819.583 418.372ZM781.932 305.414C793.086 301.507 809.264 298.999 821.256 298.999C856.956 298.999 881.501 313.78 881.501 349.201V445.147L843.57 449.607V435.384H843.013C834.645 448.213 822.091 451.84 807.312 451.84C774.957 451.84 757.387 430.643 757.387 399.961C757.387 370.956 781.095 352.828 808.707 352.828C819.583 352.828 831.857 357.012 841.061 363.705C841.34 362.31 841.34 360.917 841.34 359.242C841.34 339.44 832.135 335.257 813.445 335.257C800.617 335.257 787.511 338.603 775.794 343.903L781.932 305.414Z" fill="white"/>
<path d="M633.482 25.8459C633.482 36.6664 624.71 45.4386 613.89 45.4386C603.069 45.4386 594.297 36.6664 594.297 25.8459C594.297 15.0255 603.069 6.25331 613.89 6.25331C624.71 6.25331 633.482 15.0255 633.482 25.8459Z" fill="white"/>
</svg>
