<svg width="623" height="306" viewBox="0 0 623 306" fill="none" xmlns="http://www.w3.org/2000/svg">
<path d="M32.0647 65.8233H41.305C53.1869 65.8233 59.5994 60.7305 59.5994 51.8667C59.5994 43.0018 53.1869 37.909 41.305 37.909H32.0647V65.8233ZM0 10.5616H39.043C71.1048 10.5616 91.6632 20.1804 91.6632 52.0549C91.6632 77.5168 70.1625 93.1707 43.3798 93.1707H32.0647V138.436L0 141.454V10.5616Z" fill="#1D1D1B"/>
<path d="M152.964 115.615C166.165 115.615 177.671 104.865 177.671 91.2848C177.671 77.7057 166.165 66.9554 152.964 66.9554C139.95 66.9554 128.445 77.7057 128.445 91.2848C128.445 104.865 139.95 115.615 152.964 115.615ZM99.0217 91.2848C99.0217 61.2969 124.484 39.6069 152.964 39.6069C181.631 39.6069 207.094 61.2969 207.094 91.2848C207.094 121.274 181.631 142.963 152.964 142.963C124.484 142.963 99.0217 121.274 99.0217 91.2848Z" fill="#1D1D1B"/>
<path d="M251.605 5.46936V138.437L222.184 141.455V8.48738L251.605 5.46936Z" fill="#1D1D1B"/>
<path d="M304.039 138.437L274.616 141.455V44.1339L304.039 41.1159V138.437ZM324.219 7.62939e-05L294.42 27.9133H271.599L289.894 7.62939e-05H324.219Z" fill="#1D1D1B"/>
<path d="M317.998 68.4639L324.222 43.9443H333.463V24.7076L362.885 13.3905V43.9443H379.671V68.4639H362.885V102.413C362.885 112.031 370.241 114.673 378.541 114.673C381.18 114.673 384.953 114.107 386.273 113.541L377.787 142.586C376.464 142.775 374.768 142.963 373.26 142.963C347.23 142.963 333.463 130.516 333.463 104.676V68.4639H317.998Z" fill="#1D1D1B"/>
<path d="M429.843 138.437L400.42 141.455V44.1339L429.843 41.1159V138.437Z" fill="#1D1D1B"/>
<path d="M517.731 72.8013C512.452 68.2753 505.472 66.0123 498.683 66.0123C485.67 66.0123 474.541 75.8193 474.541 89.3994C474.541 104.488 483.972 116.559 499.248 116.559C506.226 116.559 512.452 114.484 517.92 109.58L533.952 130.515C526.22 138.813 509.433 142.963 498.683 142.963C465.301 142.963 445.119 119.01 445.119 92.9822C445.119 61.1077 467.374 39.6071 498.683 39.6071C510.753 39.6071 523.578 43.7566 533.01 51.4889L517.731 72.8013Z" fill="#1D1D1B"/>
<path d="M580.541 120.33C588.462 120.33 595.063 115.615 595.063 107.505C595.063 99.5836 588.462 94.8684 580.541 94.8684C572.43 94.8684 565.829 99.5836 565.829 107.505C565.829 115.615 572.43 120.33 580.541 120.33ZM555.078 43.9445C562.624 41.305 573.563 39.6067 581.673 39.6067C605.814 39.6067 622.412 49.603 622.412 73.556V138.436L596.76 141.454V131.836H596.383C590.724 140.511 582.238 142.963 572.241 142.963C550.364 142.963 538.482 128.629 538.482 107.883C538.482 88.2676 554.512 76.0082 573.184 76.0082C580.541 76.0082 588.84 78.837 595.063 83.364C595.252 82.4208 595.252 81.4775 595.252 80.346C595.252 66.9552 589.028 64.1254 576.391 64.1254C567.716 64.1254 558.851 66.3884 550.93 69.9732L555.078 43.9445Z" fill="#1D1D1B"/>
<path d="M53.2824 237.84C53.2824 257.643 69.8806 276.126 90.2487 276.126C110.619 276.126 127.215 257.643 127.215 237.84C127.215 218.035 110.619 199.553 90.2487 199.553C69.8806 199.553 53.2824 218.035 53.2824 237.84ZM159.279 237.84C159.279 275.56 127.971 305.549 90.2487 305.549C52.5284 305.549 21.2207 275.56 21.2207 237.84C21.2207 200.117 52.5284 170.129 90.2487 170.129C127.971 170.129 159.279 200.117 159.279 237.84Z" fill="#1D1D1B"/>
<path d="M220.956 278.201C235.102 278.201 245.663 266.884 245.663 253.87C245.663 240.857 235.102 229.541 220.956 229.541C206.623 229.541 196.061 240.857 196.061 253.87C196.061 266.884 206.623 278.201 220.956 278.201ZM200.022 168.054V211.999H200.399C205.869 205.022 216.054 202.192 225.672 202.192C254.529 202.192 275.086 226.9 275.086 254.813C275.086 283.482 251.699 305.548 223.598 305.548C190.025 305.548 170.599 285.745 170.599 252.173V171.072L200.022 168.054Z" fill="#1D1D1B"/>
<path d="M287.16 206.719L313.186 203.701V222.184H313.564C319.221 205.211 328.842 202.192 344.872 202.192L336.574 231.614C321.864 231.425 316.583 237.272 316.583 251.796V301.022L287.16 304.039V206.719Z" fill="#1D1D1B"/>
<path d="M409.564 230.672C406.545 227.465 401.644 226.711 396.551 226.711C383.726 226.711 373.729 238.782 373.729 251.23V254.625L409.564 230.672ZM382.404 272.165C385.8 277.069 392.59 279.143 398.247 279.143C408.622 279.143 418.427 274.241 426.351 267.826L441.815 290.46C428.99 299.324 414.469 305.548 397.683 305.548C366.751 305.548 345.437 278.577 345.437 255.19C345.437 226.334 368.448 202.193 396.363 202.193C416.731 202.193 435.779 213.886 444.834 231.992L382.404 272.165Z" fill="#1D1D1B"/>
<path d="M454.833 206.719L480.86 203.701V222.184H481.238C486.895 205.211 496.516 202.192 512.545 202.192L504.247 231.614C489.535 231.425 484.254 237.272 484.254 251.796V301.022L454.833 304.039V206.719Z" fill="#1D1D1B"/>
<path d="M554.228 282.916C562.149 282.916 568.752 278.201 568.752 270.09C568.752 262.17 562.149 257.453 554.228 257.453C546.119 257.453 539.517 262.17 539.517 270.09C539.517 278.201 546.119 282.916 554.228 282.916ZM528.767 206.531C536.31 203.889 547.25 202.193 555.36 202.193C579.501 202.193 596.099 212.188 596.099 236.141V301.022L570.449 304.039V294.421H570.072C564.414 303.096 555.924 305.549 545.93 305.549C524.051 305.549 512.169 291.214 512.169 270.467C512.169 250.853 528.201 238.593 546.873 238.593C554.228 238.593 562.528 241.423 568.752 245.949C568.941 245.006 568.941 244.064 568.941 242.931C568.941 229.54 562.716 226.711 550.077 226.711C541.403 226.711 532.54 228.974 524.617 232.558L528.767 206.531Z" fill="#1D1D1B"/>
<path d="M428.38 17.4779C428.38 24.795 422.448 30.727 415.131 30.727C407.814 30.727 401.882 24.795 401.882 17.4779C401.882 10.1607 407.814 4.22869 415.131 4.22869C422.448 4.22869 428.38 10.1607 428.38 17.4779Z" fill="#1D1D1B"/>
</svg>
